inDegrees=no
num_controls=7
num_derivatives=13
num_iterations=104
num_multipliers=7
num_parameters=0
num_slacks=7
num_states=26
objective=0.516926
objective_accelerations=0.039362
objective_balance=0.002172
objective_effort=0.043768
objective_height=0.419967
objective_ligament=0.011658
solver_duration=1381.734601
status=Solve_Succeeded
success=true
DataType=double
version=3
OpenSimVersion=4.5
endheader
time	/jointset/ground_pelvis/pelvis_tilt/value	/jointset/ground_pelvis/pelvis_tx/value	/jointset/ground_pelvis/pelvis_ty/value	/jointset/hip_l/hip_flexion_l/value	/jointset/hip_l/hip_adduction_l/value	/jointset/hip_l/hip_rotation_l/value	/jointset/back/lumbar_extension/value	/jointset/patellofemoral_l/patellar_flexion_l/value	/jointset/knee_l/knee_flexion_l/value	/jointset/knee_l/knee_adduction_l/value	/jointset/knee_l/knee_rotation_l/value	/jointset/ankle_l/ankle_angle_l/value	/jointset/subtalar_l/subtalar_angle_l/value	/jointset/ground_pelvis/pelvis_tilt/speed	/jointset/ground_pelvis/pelvis_tx/speed	/jointset/ground_pelvis/pelvis_ty/speed	/jointset/hip_l/hip_flexion_l/speed	/jointset/hip_l/hip_adduction_l/speed	/jointset/hip_l/hip_rotation_l/speed	/jointset/back/lumbar_extension/speed	/jointset/patellofemoral_l/patellar_flexion_l/speed	/jointset/knee_l/knee_flexion_l/speed	/jointset/knee_l/knee_adduction_l/speed	/jointset/knee_l/knee_rotation_l/speed	/jointset/ankle_l/ankle_angle_l/speed	/jointset/subtalar_l/subtalar_angle_l/speed	/forceset/tau_hip_flexion_l	/forceset/tau_hip_adduction_l	/forceset/tau_hip_rotation_l	/forceset/tau_knee_flexion_l	/forceset/tau_ankle_angle_l	/forceset/tau_subtalar_angle_l	/forceset/tau_lumbar_extension	lambda_cid13_p0	lambda_cid13_p1	lambda_cid13_p2	lambda_cid13_p3	lambda_cid13_p4	lambda_cid13_p5	lambda_cid14_p0	/jointset/ground_pelvis/pelvis_tilt/accel	/jointset/ground_pelvis/pelvis_tx/accel	/jointset/ground_pelvis/pelvis_ty/accel	/jointset/hip_l/hip_flexion_l/accel	/jointset/hip_l/hip_adduction_l/accel	/jointset/hip_l/hip_rotation_l/accel	/jointset/back/lumbar_extension/accel	/jointset/patellofemoral_l/patellar_flexion_l/accel	/jointset/knee_l/knee_flexion_l/accel	/jointset/knee_l/knee_adduction_l/accel	/jointset/knee_l/knee_rotation_l/accel	/jointset/ankle_l/ankle_angle_l/accel	/jointset/subtalar_l/subtalar_angle_l/accel	gamma_cid13_p0	gamma_cid13_p1	gamma_cid13_p2	gamma_cid13_p3	gamma_cid13_p4	gamma_cid13_p5	gamma_cid14_p0
0.5	-0.121778657390382	-0.05551989838994027	0.8255773387099627	0.8877823446522056	-0.3240606497830059	-0.1243658691892768	-0.7802063654949959	0.7810100605815656	0.7810100605815867	-0.1110398587356816	-0.1743970239110242	0.06844146720443098	-0.008166235019197169	-0.2096117978661962	-0.2054591054903502	-0.3346979699404804	1.483086529027833	-0.04166654598322749	0.4544938088654115	-0.8410671488587462	1.418796979274227	1.418796979274231	0.1279540642565152	0.000485259058004576	0.235250508456204	0.02893224444755878	-0.2858777076158009	0.03630525090411579	-0.003003611759873017	-0.2049369854873283	0.115020387476505	0.03715332086458352	0.3331846144963851	-8.089156471786856	-16.04911352543513	3.623287690415379	-9.244421951962249	-704.7378387855665	-64.81580805604308	-15.16416215737329	0.2991905315701003	0.6599265399318737	-0.1049913888405831	-1.464921418375414	0.2239099639509713	-0.3283885535376693	1.78063895488136	-1.083310935904705	-1.083310935904718	-0.2813707026296938	0.03535232670693117	0.03974700214985163	0.2579332334950081	-3.676577242344583e-08	-5.223632162006678e-07	-4.437941619462943e-08	-7.269416306872357e-08	-6.414393382906115e-08	-5.115190102579303e-08	-6.915363646845696e-08
0.51	-0.1238595406686574	-0.05754139579542239	0.8222258345856882	0.9025378320551679	-0.3244664332751882	-0.1198390241567673	-0.7885270969630147	0.7951416996947185	0.7951416996947382	-0.109774403093477	-0.1743916039318238	0.07079530827906058	-0.007864531427092611	-0.2065323965262897	-0.1988310968546315	-0.3355278134604935	1.467802758545829	-0.0394885576160052	0.4507882339735909	-0.8229923924228291	1.407322081396139	1.40732208139615	0.1251546814335677	0.0005784052756636042	0.2354709692836087	0.03139764959696816	-0.2923335577104407	0.03679112834853238	-0.003209154291298853	-0.20737295083026	0.1152363765219737	0.03747070149743694	0.3393713348203881	-8.241854224033551	-16.10434542311771	3.568275912720697	-9.267016051647307	-708.6262512685275	-64.61242523821237	-14.64885690660241	0.3171819967879418	0.6656157594856312	-0.06073630773136976	-1.591335705087059	0.2150513594818987	-0.4047451580589713	1.833906833174214	-1.210880100172639	-1.2108801001719	-0.2766699765248237	-0.00674933839857606	0.006167002934931456	0.2393033033484796	-5.366778021024138e-08	-4.204933229056255e-07	1.025071064503878e-07	-4.595863113078253e-08	-7.231726272001281e-08	-4.200121886853755e-08	-7.479829869060987e-08
0.52	-0.1259086565211132	-0.05949633756772342	0.8188682809313836	0.9171342355849867	-0.3248503752664272	-0.1153518555133943	-0.7966644782976152	0.8091523296518118	0.8091523296517749	-0.1085364308603814	-0.1743858615119915	0.07314994823794736	-0.007538481953956767	-0.2032583127232566	-0.1921479788541331	-0.3359078759465068	1.451269754384858	-0.03729824579381091	0.4465585310395799	-0.8043971221780841	1.394595148061572	1.394595148061588	0.122457382434708	0.000549747185563453	0.2354102853070046	0.03380142065376693	-0.2987894078050875	0.03727700579294355	-0.003414696822680063	-0.2098089161731937	0.1154523655674309	0.03778808213027969	0.3455580551443905	-8.397798315140122	-16.15974486182042	3.514131479042772	-9.315507906390742	-712.5866544119607	-64.42807888588032	-14.13070339633224	0.3381270241923926	0.6709484128899476	-0.0150351820402018	-1.714768154169257	0.2263746549451268	-0.4332141619758434	1.884741716645244	-1.333718027201167	-1.333718027201169	-0.2609539378126241	0.01099146515488668	-0.016481958649279	0.2456064149735211	-8.987002067439138e-08	-2.708555260294727e-07	3.777111496931715e-07	3.46853316303668e-09	-1.003009402043245e-07	-3.082336015685435e-08	-9.046633460061099e-08
0.53	-0.1279240830215474	-0.06138423709375693	0.8155091872401375	0.931559103001685	-0.325212581476554	-0.1109081079523099	-0.8046133758642101	0.8230293962429652	0.8230293962429864	-0.1073262150675001	-0.1743800766232676	0.07550248993080984	-0.007189003760725548	-0.1997979808662062	-0.1854293406483835	-0.3358342562201693	1.433502965659526	-0.03514767352612992	0.4421296808099753	-0.7853018289747219	1.380610556692619	1.380610556692628	0.1195790878346428	0.0006009030642879806	0.2350471161764183	0.03607462525745456	-0.3051510450240726	0.03767917864698222	-0.003623051211599497	-0.2121202883349727	0.1153221655055534	0.03811953573486239	0.3516072412685525	-8.664009280440489	-16.20302541292923	3.459283989323862	-9.203654561151311	-716.4848924546581	-64.24609595461607	-13.61033900508641	0.3543258519030997	0.6727152715878798	0.03002846353774684	-1.837762795445325	0.2086496551188645	-0.4570073885789125	1.934007444182102	-1.461951975078032	-1.4619519750792	-0.3022882550474448	0.001334960828051434	-0.05387975515291056	0.2152083093010921	-1.080354288353227e-07	-1.616746804713747e-07	5.389830118438922e-07	3.414859487215682e-08	-1.113977532511911e-07	-1.786403973722367e-08	-9.660296856794827e-08
0.54	-0.1299040382862248	-0.06320487148829415	0.8121531233288681	0.9458002768184514	-0.3255534317355198	-0.1065105062805522	-0.8123689036343588	0.8367603924637709	0.8367603924637872	-0.1061449864274193	-0.1743739487134341	0.07784987085939181	-0.006817387356210278	-0.1961640655918181	-0.1786949525548716	-0.3353019199511698	1.414531034384983	-0.03302705556086871	0.4373293531753245	-0.7657231628915894	1.365381073990234	1.365381073990236	0.1166599518768099	0.0006183514068833438	0.2343781324502718	0.03822906291053641	-0.311512682243066	0.03808135150101773	-0.003831405600554426	-0.2144316604967505	0.1151919654436665	0.03845098933943832	0.3576564273927124	-8.933904001636471	-16.24662684932239	3.405591325219809	-9.121767825930188	-720.4640065164427	-64.09898925665109	-13.08853177072836	0.3728437076570875	0.6740983904443738	0.07670812649260597	-1.955796664011956	0.2203837944609388	-0.5075096429851831	1.981416292597827	-1.582696293887932	-1.582696293887927	-0.2691222093666067	0.004249957928847055	-0.0776448777588099	0.221853024852958	-1.062451927458841e-07	-9.725471722261429e-08	5.742022481055206e-07	4.408718138118417e-08	-1.038112269204585e-07	-2.933740406672365e-09	-9.219422166255096e-08
